# xmcd CD database file
#
# Track frame offsets:
#	150
#	13141
#	43066
#	65199
#	87329
#	103201
#	123990
#	138427
#	154611
#	180862
#
# Disc length: 2720 seconds
#
# Revision: 1
# Processed by: cddbd v1.5.1PL2 Copyright (c) Steve Scherf et al.
# Submitted via: CDex 1.60beta1
#
DISCID=850a9e0a
DTITLE=Square Record - 7090 Audio Machine (disc1)
DYEAR=2005
DGENRE=Retro
TTITLE0=makou/A Sigh Of Relief
TTITLE1=Hiroshi Okubo/flow of soul
TTITLE2=makou/Stop Rockin'
TTITLE3=Electronic Boutique/Vintage Filter
TTITLE4=cranky/Cyber Gig
TTITLE5=Musikadelik/Night Rain (Gravity Edit)
TTITLE6=M2U/Shuffler
TTITLE7=EarBreaker/Jumping Jack
TTITLE8=Akitaka Toyama/The Advent
TTITLE9=sanodg/Happy High Speed
EXTD=YEAR: 2005
EXTT0=
EXTT1=
EXTT2=
EXTT3=
EXTT4=
EXTT5=
EXTT6=
EXTT7=
EXTT8=
EXTT9=
PLAYORDER=
